PathFileType	4	(X/Y/Z)	Walk4.trc
DataRate	CameraRate	NumFrames	NumMarkers	Units	OrigDataRate	OrigDataStartFrame	OrigNumFrames
200.000000	200.000000	4	61	mm	200.000000	490	718
Frame#	Times		RCAR		LToe		LLFC		RWRU		RACR1		RFA1		RFHD		LUA1		LFA1		LCAR		RWRR		LElbow		STRN		RLFC		LACR1		LWRU		RTH3		RTB2		LWRR		C7		LFHD		RToe		RMFC		RMT1		RTH2		RMT5		LTH3		LPSI		RPSI		RTB3		LTH4		LTB1		RASI		RCAL		RTB1		LTB3		LTB4		CLAV		LTH2		LTH1		LMT5		RTB4		LTB2		LMT1		RLMAL		RMMAL		LBHD		LMFC		RBHD		RUA1		RElbow		LLMAL		RBack		LASI		RTH1		RTH4		T10		LCAL		LElbowM		LMMAL		RElbowM
			X1	Y1	Z1	X2	Y2	Z2	X3	Y3	Z3	X4	Y4	Z4	X5	Y5	Z5	X6	Y6	Z6	X7	Y7	Z7	X8	Y8	Z8	X9	Y9	Z9	X10	Y10	Z10	X11	Y11	Z11	X12	Y12	Z12	X13	Y13	Z13	X14	Y14	Z14	X15	Y15	Z15	X16	Y16	Z16	X17	Y17	Z17	X18	Y18	Z18	X19	Y19	Z19	X20	Y20	Z20	X21	Y21	Z21	X22	Y22	Z22	X23	Y23	Z23	X24	Y24	Z24	X25	Y25	Z25	X26	Y26	Z26	X27	Y27	Z27	X28	Y28	Z28	X29	Y29	Z29	X30	Y30	Z30	X31	Y31	Z31	X32	Y32	Z32	X33	Y33	Z33	X34	Y34	Z34	X35	Y35	Z35	X36	Y36	Z36	X37	Y37	Z37	X38	Y38	Z38	X39	Y39	Z39	X40	Y40	Z40	X41	Y41	Z41	X42	Y42	Z42	X43	Y43	Z43	X44	Y44	Z44	X45	Y45	Z45	X46	Y46	Z46	X47	Y47	Z47	X48	Y48	Z48	X49	Y49	Z49	X50	Y50	Z50	X51	Y51	Z51	X52	Y52	Z52	X53	Y53	Z53	X54	Y54	Z54	X55	Y55	Z55	X56	Y56	Z56	X57	Y57	Z57	X58	Y58	Z58	X59	Y59	Z59	X60	Y60	Z60	X61	Y61	Z61

490	2.45	89.598	821.91	397.87	-124.59	29.871	-59.179	-91.377	489.4	-135.32	106.69	857.94	333.42	95.755	1477.1	222.66	72.298	1003.9	354.97	242.28	1659.2	96.311	49.873	1326.7	-231.29	146.02	1050.3	-277.68	235.29	911.02	-281.69	35.617	865.97	386.96	31.044	1156.3	-281.79	203.22	1276.8	15.991	219.86	511.16	198.26	53.838	1508.6	-146.46	155.89	918	-283.54	159.58	633.52	208.06	300.31	288.01	163.21	223.7	948.64	-226.5	-27.221	1536.6	55.487	237.05	1662.3	-8.8365	474.11	58.591	93.171	201.15	499.5	51.537	424.1	61.439	81.783	173.89	735.24	227.24	388.8	35.307	171.21	-23.807	622.43	-160.16	-95.65	1048.6	-27.522	-89.188	1040.6	80.613	296.97	204.07	98.193	-6.118	706.57	-176.55	-125.29	339.02	-33.877	137.91	1023.3	179.33	206.57	38.497	106.02	285.6	376.26	108.15	-221.83	198.31	-25.361	-174.41	269.84	-28.904	136.81	1446	18.506	47.442	699.7	-157.34	10.343	790.23	-191.21	-229.43	35.9	-120.83	291.12	289.32	102.9	-160.02	255.6	-88.665	-177.67	43.453	-38.273	265.2	73.783	147.56	287.38	106.21	53.484	69.566	1673.3	-20.076	-78.762	485.41	2.9148	72.811	1673.5	122.55	63.251	1297.2	292.4	5.1255	1142	333.29	-287.7	122.25	15.002	-78.167	1422.1	168.56	116.63	1008.6	-137.56	81.547	786.7	228.19	120.51	707.39	217.08	-76.099	1179.3	25.024	-390.73	105.91	-39.433	2.1714	1122.2	-196.45	-322.38	109.37	-83.769	-19.382	1116.3	242.87
491	2.455	96.793	822.53	398.48	-124.79	29.712	-59.01	-83.05	489.4	-135.2	113.9	858.63	334.13	101.13	1477.7	223.89	78.775	1004.4	355.66	248.12	1659.8	97.35	55.273	1327.6	-229.99	150.07	1050.1	-276.52	237.95	909.98	-281.09	42.638	866.31	387.4	36.052	1157.1	-280.19	208.66	1277.6	17.05	224.21	511.41	198.93	59.518	1509.5	-145.27	158.61	917.69	-282.67	164.39	634.04	208.74	302.81	287.62	163.65	226.85	947.58	-225.78	-21.617	1537.3	56.617	242.81	1662.8	-7.7895	474.6	56.701	93.042	205.87	500.03	52.198	424.57	60.144	81.688	179.02	735.75	227.9	389.09	34.316	171.67	-16.066	622.23	-159.98	-90.027	1049.2	-27.18	-83.578	1041.3	81.028	298.62	203.76	98.515	1.0442	706.59	-176.05	-118.73	339.48	-34.002	143.45	1024.4	180.68	206.81	38.885	106.3	288.88	376.04	108.67	-217.65	200.4	-25.312	-169.02	271.2	-28.892	142.41	1446.8	19.678	54.594	699.98	-156.84	16.911	790.35	-190.45	-228.79	37.335	-120.26	293.6	289.05	103.33	-155.16	256.84	-88.746	-177.36	43.474	-38.014	265.78	73.773	148.03	288.13	106.07	53.81	75.333	1674.1	-18.924	-69.766	484.93	2.673	78.699	1674.2	123.72	68.889	1297.6	293.34	11.057	1142.2	333.88	-284.54	125.54	15.347	-72.759	1422.7	169.46	122.67	1009.9	-136.71	86.791	787.48	228.83	125.55	708.06	217.73	-70.564	1180.1	25.72	-387.98	111.62	-38.699	7.2201	1123.4	-194.67	-319.84	113.37	-83.251	-12.948	1116.5	243.3
492	2.46	104.03	823.31	399.06	-124.99	29.533	-58.856	-74.456	489.41	-135.14	121.14	859.5	334.81	106.53	1478.5	225.09	85.238	1005.1	356.34	253.95	1660.4	98.384	60.698	1328.7	-228.66	154.06	1050	-275.39	240.48	909.02	-280.51	49.685	866.78	387.8	41.025	1158.1	-278.58	214.04	1278.6	18.058	228.17	511.58	199.61	65.177	1510.6	-144.06	161.21	917.54	-281.86	168.91	634.54	209.41	305.08	287.23	164.1	229.88	946.6	-225.08	-16.04	1538.2	57.758	248.56	1663.4	-6.7467	475.03	55.043	92.902	210.25	500.5	52.866	424.98	59.043	81.565	183.96	736.19	228.62	389.34	33.491	172.14	-8.1636	622.06	-159.84	-84.438	1049.8	-26.763	-77.974	1042.2	81.511	300.12	203.48	98.831	8.3153	706.64	-175.57	-111.84	340	-34.177	148.99	1025.5	181.92	207.01	39.219	106.55	291.92	375.83	109.19	-213.16	202.63	-25.283	-163.33	272.65	-28.909	147.99	1447.7	20.834	61.856	700.32	-156.41	23.531	790.52	-189.7	-228.05	38.971	-119.68	295.89	288.8	103.77	-150.03	258.19	-88.87	-176.97	43.556	-37.745	266.28	73.766	148.45	288.8	105.96	54.107	81.089	1674.9	-17.771	-60.392	484.41	2.3846	84.58	1675	124.87	74.524	1298.2	294.27	16.938	1142.6	334.47	-281.09	129.01	15.704	-67.329	1423.3	170.39	128.71	1011.3	-135.99	91.905	788.3	229.48	130.36	708.72	218.37	-65.027	1180.9	26.477	-384.91	117.61	-37.895	12.238	1124.7	-192.89	-317.04	117.59	-82.697	-6.543	1116.9	243.73
493	2.465	111.31	824.23	399.59	-125.14	29.331	-58.725	-65.61	489.43	-135.12	128.42	860.52	335.47	111.97	1479.3	226.27	91.689	1005.9	357.03	259.76	1661	99.411	66.144	1329.8	-227.32	157.97	1050	-274.29	242.91	908.14	-279.95	56.758	867.38	388.16	45.96	1159.2	-276.98	219.39	1279.6	19.016	231.77	511.71	200.3	70.808	1511.8	-142.84	163.72	917.54	-281.09	173.14	635.01	210.07	307.13	286.86	164.55	232.81	945.7	-224.4	-10.487	1539.1	58.909	254.29	1664	-5.7108	475.39	53.602	92.756	214.27	500.92	53.533	425.33	58.124	81.422	188.71	736.58	229.37	389.56	32.814	172.6	-0.11475	621.92	-159.76	-78.885	1050.6	-26.268	-72.379	1043.1	82.066	301.49	203.22	99.141	15.684	706.73	-175.14	-104.64	340.58	-34.398	154.53	1026.6	183.04	207.2	39.503	106.78	294.71	375.62	109.72	-208.36	204.97	-25.265	-157.33	274.2	-28.948	153.53	1448.7	21.973	69.217	700.71	-156.04	30.196	790.73	-188.94	-227.19	40.821	-119.11	297.98	288.56	104.2	-144.63	259.64	-89.029	-176.47	43.718	-37.474	266.71	73.76	148.82	289.39	105.86	54.376	86.829	1675.8	-16.621	-50.651	483.83	2.0548	90.451	1675.9	126.03	80.159	1298.8	295.2	22.774	1143	335.08	-277.31	132.64	16.077	-61.874	1424.1	171.34	134.73	1012.7	-135.38	96.893	789.17	230.13	134.96	709.41	219.01	-59.49	1181.8	27.292	-381.49	123.87	-37.012	17.223	1126.2	-191.12	-313.96	122.03	-82.101	-0.17485	1117.4	244.17
